<svg width="32" height="32" viewBox="0 0 32 32" xmlns="http://www.w3.org/2000/svg">
  <!-- Pixel art style RPG wizard -->
  <rect width="32" height="32" fill="#1a1a1a"/>
  
  <!-- Wizard hat -->
  <rect x="10" y="2" width="12" height="2" fill="#8b5cf6"/>
  <rect x="12" y="4" width="8" height="2" fill="#7c3aed"/>
  <rect x="13" y="6" width="6" height="2" fill="#6b46c1"/>
  <rect x="14" y="8" width="4" height="2" fill="#553c9a"/>
  
  <!-- Hat brim -->
  <rect x="8" y="10" width="16" height="2" fill="#374151"/>
  
  <!-- Face -->
  <rect x="11" y="12" width="10" height="6" fill="#fef3c7"/>
  
  <!-- Eyes -->
  <rect x="13" y="14" width="2" height="1" fill="#1f2937"/>
  <rect x="17" y="14" width="2" height="1" fill="#1f2937"/>
  
  <!-- Beard -->
  <rect x="10" y="18" width="12" height="4" fill="#e5e7eb"/>
  <rect x="11" y="22" width="10" height="2" fill="#d1d5db"/>
  
  <!-- Staff -->
  <rect x="24" y="8" width="2" height="16" fill="#92400e"/>
  
  <!-- Magic orb -->
  <rect x="23" y="6" width="4" height="4" fill="#fbbf24"/>
  <rect x="24" y="7" width="2" height="2" fill="#f59e0b"/>
  
  <!-- Magic sparkles -->
  <rect x="6" y="6" width="1" height="1" fill="#fde047"/>
  <rect x="4" y="12" width="1" height="1" fill="#fde047"/>
  <rect x="28" y="18" width="1" height="1" fill="#fde047"/>
  <rect x="5" y="26" width="1" height="1" fill="#fde047"/>
</svg>
